<svg xmlns="http://www.w3.org/2000/svg" width="32" height="20.5" viewBox="0 0 32 20.5">
  <metadata><?xpacket begin="﻿" id="W5M0MpCehiHzreSzNTczkc9d"?>
<x:xmpmeta xmlns:x="adobe:ns:meta/" x:xmptk="Adobe XMP Core 5.6-c140 79.160451, 2017/05/06-01:08:21        ">
   <rdf:RDF xmlns:rdf="http://www.w3.org/1999/02/22-rdf-syntax-ns#">
      <rdf:Description rdf:about=""/>
   </rdf:RDF>
</x:xmpmeta>
                                                                                                    
                                                                                                    
                                                                                                    
                                                                                                    
                                                                                                    
                                                                                                    
                                                                                                    
                                                                                                    
                                                                                                    
                                                                                                    
                                                                                                    
                                                                                                    
                                                                                                    
                                                                                                    
                                                                                                    
                                                                                                    
                                                                                                    
                                                                                                    
                                                                                                    
                                                                                                    
                           
<?xpacket end="w"?></metadata>
<defs>
    <style>
      .cls-1 {
        fill: #fff;
        fill-rule: evenodd;
      }
    </style>
  </defs>
  <path id="behance" class="cls-1" d="M1147.01,6698h7.98v2.03h-7.98V6698Zm11,12.06h-10.38c0.11,2.51,1.34,3.44,3.53,3.44,1.59,0,2.87-.51,3.12-1.4h3.17c-1.12,3.41-3.17,4.39-6.43,4.39-4.53,0-7.34-3.13-7.34-7.6,0-4.34,2.98-7.64,7.34-7.64C1155.92,6701.25,1158.29,6705.61,1158.01,6710.06Zm-10.38-2.96h6.43c-0.36-2.01-1.23-2.86-3.15-2.86A2.974,2.974,0,0,0,1147.63,6707.1Zm-4.99,3.21c0,4.06-3.42,5.79-7.01,5.79H1126v-20.09h9.35c3.79,0,6.35,1.35,6.35,5.07a4.387,4.387,0,0,1-2.71,4.17A4.865,4.865,0,0,1,1142.64,6710.31Zm-8.55-10.92H1130v4.67h4.42c1.53,0,2.67-.7,2.67-2.38C1137.09,6699.78,1135.64,6699.39,1134.09,6699.39Zm0.66,7.66H1130v5.48h4.67c1.72,0,3.23-.56,3.23-2.63C1137.9,6707.86,1136.62,6707.05,1134.75,6707.05Z" transform="translate(-1126 -6696)"/>
</svg>
