<svg xmlns="http://www.w3.org/2000/svg" width="18" height="14.97" viewBox="0 0 18 14.97">
  <metadata><?xpacket begin="﻿" id="W5M0MpCehiHzreSzNTczkc9d"?>
<x:xmpmeta xmlns:x="adobe:ns:meta/" x:xmptk="Adobe XMP Core 5.6-c140 79.160451, 2017/05/06-01:08:21        ">
   <rdf:RDF xmlns:rdf="http://www.w3.org/1999/02/22-rdf-syntax-ns#">
      <rdf:Description rdf:about=""/>
   </rdf:RDF>
</x:xmpmeta>
                                                                                                    
                                                                                                    
                                                                                                    
                                                                                                    
                                                                                                    
                                                                                                    
                                                                                                    
                                                                                                    
                                                                                                    
                                                                                                    
                                                                                                    
                                                                                                    
                                                                                                    
                                                                                                    
                                                                                                    
                                                                                                    
                                                                                                    
                                                                                                    
                                                                                                    
                                                                                                    
                           
<?xpacket end="w"?></metadata>
<defs>
    <style>
      .cls-1 {
        fill: #fff;
        fill-rule: evenodd;
      }
    </style>
  </defs>
  <path id="icon" class="cls-1" d="M906.971,5624.2a1.023,1.023,0,0,1-.535-0.15,1.009,1.009,0,0,1-.464-0.9l0.2-3.49a5.525,5.525,0,0,1-1.668-3.84c0-3.64,4.037-6.61,9-6.61s9,2.97,9,6.61-4.037,6.61-9,6.61a12.043,12.043,0,0,1-2.54-.27l-3.509,1.92A1.019,1.019,0,0,1,906.971,5624.2Zm6.529-12.99c-3.794,0-7,2.11-7,4.61a3.719,3.719,0,0,0,1.361,2.7,1,1,0,0,1,.329.8l-0.12,2.14,2.264-1.24a1.008,1.008,0,0,1,.723-0.09,10.063,10.063,0,0,0,2.443.3c3.794,0,7-2.11,7-4.61S917.294,5611.21,913.5,5611.21Z" transform="translate(-904.5 -5609.22)"/>
</svg>
