<svg xmlns="http://www.w3.org/2000/svg" width="14" height="14" viewBox="0 0 14 14">
  <metadata><?xpacket begin="﻿" id="W5M0MpCehiHzreSzNTczkc9d"?>
<x:xmpmeta xmlns:x="adobe:ns:meta/" x:xmptk="Adobe XMP Core 5.6-c140 79.160451, 2017/05/06-01:08:21        ">
   <rdf:RDF xmlns:rdf="http://www.w3.org/1999/02/22-rdf-syntax-ns#">
      <rdf:Description rdf:about=""/>
   </rdf:RDF>
</x:xmpmeta>
                                                                                                    
                                                                                                    
                                                                                                    
                                                                                                    
                                                                                                    
                                                                                                    
                                                                                                    
                                                                                                    
                                                                                                    
                                                                                                    
                                                                                                    
                                                                                                    
                                                                                                    
                                                                                                    
                                                                                                    
                                                                                                    
                                                                                                    
                                                                                                    
                                                                                                    
                                                                                                    
                           
<?xpacket end="w"?></metadata>
<defs>
    <style>
      .cls-1 {
        fill: #647b9c;
        fill-rule: evenodd;
      }
    </style>
  </defs>
  <path id="db" class="cls-1" d="M978.008,1708.01a6.99,6.99,0,1,0,7,6.99A7,7,0,0,0,978.008,1708.01Zm4.442,3.22a5.773,5.773,0,0,1,1.374,3.38,29.321,29.321,0,0,0-3.983.05c-0.152-.39-0.31-0.77-0.479-1.13A7.047,7.047,0,0,0,982.45,1711.23Zm-4.442-2.06a5.852,5.852,0,0,1,3.722,1.34,7.186,7.186,0,0,1-2.868,2.03,14.338,14.338,0,0,0-2.289-3.18A5.669,5.669,0,0,1,978.008,1709.17Zm-2.639.64a13.846,13.846,0,0,1,2.326,3.15,15.381,15.381,0,0,1-4.437.63q-0.456,0-.9-0.03A5.826,5.826,0,0,1,975.369,1709.81Zm-3.184,4.91c0.331,0.02.667,0.02,1.007,0.02a17.207,17.207,0,0,0,5.017-.78c0.137,0.29.269,0.58,0.394,0.88a3.752,3.752,0,0,0-.521.16,8.686,8.686,0,0,0-4.449,3.85,5.824,5.824,0,0,1-1.458-3.85C972.175,1714.91,972.18,1714.81,972.185,1714.72Zm5.823,6.11a5.794,5.794,0,0,1-3.575-1.23,8,8,0,0,1,3.909-3.6,2.755,2.755,0,0,1,.634-0.19c0.207,0.57.395,1.17,0.557,1.79a21.258,21.258,0,0,1,.54,2.84A5.679,5.679,0,0,1,978.008,1720.83Zm3.153-.93a21.221,21.221,0,0,0-.544-2.88c-0.124-.47-0.267-0.93-0.418-1.38a25.5,25.5,0,0,1,3.6,0A5.831,5.831,0,0,1,981.161,1719.9Z" transform="translate(-971 -1708)"/>
</svg>
