<svg xmlns="http://www.w3.org/2000/svg" width="21" height="21" viewBox="0 0 21 21">
  <metadata><?xpacket begin="﻿" id="W5M0MpCehiHzreSzNTczkc9d"?>
<x:xmpmeta xmlns:x="adobe:ns:meta/" x:xmptk="Adobe XMP Core 5.6-c140 79.160451, 2017/05/06-01:08:21        ">
   <rdf:RDF xmlns:rdf="http://www.w3.org/1999/02/22-rdf-syntax-ns#">
      <rdf:Description rdf:about=""/>
   </rdf:RDF>
</x:xmpmeta>
                                                                                                    
                                                                                                    
                                                                                                    
                                                                                                    
                                                                                                    
                                                                                                    
                                                                                                    
                                                                                                    
                                                                                                    
                                                                                                    
                                                                                                    
                                                                                                    
                                                                                                    
                                                                                                    
                                                                                                    
                                                                                                    
                                                                                                    
                                                                                                    
                                                                                                    
                                                                                                    
                           
<?xpacket end="w"?></metadata>
<defs>
    <style>
      .cls-1 {
        fill: #fff;
        fill-rule: evenodd;
      }
    </style>
  </defs>
  <path id="dribbble" class="cls-1" d="M1095.79,6704.39a10.575,10.575,0,0,0-.62-1.98,10.731,10.731,0,0,0-3.8-4.62,10.955,10.955,0,0,0-1.78-.97,11.338,11.338,0,0,0-1.98-.61,10.705,10.705,0,0,0-4.22,0,11.338,11.338,0,0,0-1.98.61,10.955,10.955,0,0,0-1.78.97,10.657,10.657,0,0,0-2.84,2.84,10.192,10.192,0,0,0-.96,1.78,10.426,10.426,0,0,0,0,8.18,10.192,10.192,0,0,0,.96,1.78,10.283,10.283,0,0,0,2.84,2.84,10.192,10.192,0,0,0,1.78.96,10.426,10.426,0,0,0,8.18,0,10.192,10.192,0,0,0,1.78-.96,10.657,10.657,0,0,0,2.84-2.84,10.192,10.192,0,0,0,.96-1.78A10.562,10.562,0,0,0,1095.79,6704.39Zm-1.33,2.02a20.62,20.62,0,0,0-6.24-.29c-0.06-.16-0.13-0.31-0.19-0.47-0.19-.44-0.39-0.87-0.6-1.3a11.494,11.494,0,0,0,5-3.55A8.971,8.971,0,0,1,1094.46,6706.41Zm-3.04-6.64a9.8,9.8,0,0,1-4.68,3.25,44.725,44.725,0,0,0-3.35-5.23,8.588,8.588,0,0,1,2.11-.26A8.935,8.935,0,0,1,1091.42,6699.77Zm-8.07-1.98h0a0.044,0.044,0,0,1-.03.01A0.037,0.037,0,0,0,1083.35,6697.79Zm-1.68.6a53.349,53.349,0,0,1,3.33,5.17,33.433,33.433,0,0,1-8.28,1.09A8.991,8.991,0,0,1,1081.67,6698.39Zm-5.14,8.11c0-.1.01-0.19,0.01-0.28a33.178,33.178,0,0,0,9.21-1.28c0.25,0.5.5,1.01,0.72,1.52-0.11.04-.23,0.07-0.35,0.11a14.143,14.143,0,0,0-7.29,5.92h0A8.929,8.929,0,0,1,1076.53,6706.5Zm8.97,8.97a8.891,8.891,0,0,1-5.71-2.06c0.12,0.1.2,0.16,0.2,0.16s1.72-3.75,7.04-5.6a0.142,0.142,0,0,1,.06-0.02,36.919,36.919,0,0,1,1.91,6.81A9.04,9.04,0,0,1,1085.5,6715.47Zm5.01-1.53a39.035,39.035,0,0,0-1.74-6.41,13.024,13.024,0,0,1,5.58.39A8.994,8.994,0,0,1,1090.51,6713.94Z" transform="translate(-1075 -6696)"/>
</svg>
