<svg xmlns="http://www.w3.org/2000/svg" width="12" height="12" viewBox="0 0 12 12">
  <metadata><?xpacket begin="﻿" id="W5M0MpCehiHzreSzNTczkc9d"?>
<x:xmpmeta xmlns:x="adobe:ns:meta/" x:xmptk="Adobe XMP Core 5.6-c140 79.160451, 2017/05/06-01:08:21        ">
   <rdf:RDF xmlns:rdf="http://www.w3.org/1999/02/22-rdf-syntax-ns#">
      <rdf:Description rdf:about=""/>
   </rdf:RDF>
</x:xmpmeta>
                                                                                                    
                                                                                                    
                                                                                                    
                                                                                                    
                                                                                                    
                                                                                                    
                                                                                                    
                                                                                                    
                                                                                                    
                                                                                                    
                                                                                                    
                                                                                                    
                                                                                                    
                                                                                                    
                                                                                                    
                                                                                                    
                                                                                                    
                                                                                                    
                                                                                                    
                                                                                                    
                           
<?xpacket end="w"?></metadata>
<defs>
    <style>
      .cls-1 {
        fill: #647b9c;
        fill-rule: evenodd;
      }
    </style>
  </defs>
  <path id="in" class="cls-1" d="M1010.73,1720.01v-8.1h-2.57v8.1h2.57Zm-1.29-9.2a1.4,1.4,0,1,0,.02-2.8,1.4,1.4,0,1,0-.03,2.8h0.01Zm2.71,9.2h2.58v-4.52a1.865,1.865,0,0,1,.08-0.66,1.418,1.418,0,0,1,1.32-.99c0.93,0,1.3.75,1.3,1.83v4.34h2.58v-4.65c0-2.48-1.27-3.64-2.97-3.64a2.554,2.554,0,0,0-2.33,1.36h0.02v-1.17h-2.58c0.04,0.76,0,8.1,0,8.1h0Z" transform="translate(-1008 -1708)"/>
</svg>
