<svg xmlns="http://www.w3.org/2000/svg" width="18" height="14.15" viewBox="0 0 18 14.15">
  <metadata><?xpacket begin="﻿" id="W5M0MpCehiHzreSzNTczkc9d"?>
<x:xmpmeta xmlns:x="adobe:ns:meta/" x:xmptk="Adobe XMP Core 5.6-c140 79.160451, 2017/05/06-01:08:21        ">
   <rdf:RDF xmlns:rdf="http://www.w3.org/1999/02/22-rdf-syntax-ns#">
      <rdf:Description rdf:about=""/>
   </rdf:RDF>
</x:xmpmeta>
                                                                                                    
                                                                                                    
                                                                                                    
                                                                                                    
                                                                                                    
                                                                                                    
                                                                                                    
                                                                                                    
                                                                                                    
                                                                                                    
                                                                                                    
                                                                                                    
                                                                                                    
                                                                                                    
                                                                                                    
                                                                                                    
                                                                                                    
                                                                                                    
                                                                                                    
                                                                                                    
                           
<?xpacket end="w"?></metadata>
<defs>
    <style>
      .cls-1 {
        fill: #fff;
        fill-rule: evenodd;
      }
    </style>
  </defs>
  <path id="icon" class="cls-1" d="M833.792,5624.11a1.017,1.017,0,0,1-.5-0.14c-0.869-.51-8.5-5.1-8.5-9.91,0-2.15,2.537-4.11,5.323-4.11a5.991,5.991,0,0,1,3.682,1.26,6.094,6.094,0,0,1,3.673-1.23c2.786,0,5.323,1.95,5.323,4.08,0,4.81-7.626,9.4-8.5,9.91A1.02,1.02,0,0,1,833.792,5624.11Zm-3.678-12.16c-1.9,0-3.323,1.28-3.323,2.11,0,2.89,4.659,6.41,7,7.88,2.341-1.47,7-5,7-7.88,0-.82-1.427-2.08-3.323-2.08a3.772,3.772,0,0,0-2.907,1.25,1.033,1.033,0,0,1-1.541,0A3.869,3.869,0,0,0,830.114,5611.95Z" transform="translate(-824.781 -5609.94)"/>
</svg>
