<svg xmlns="http://www.w3.org/2000/svg" width="10.688" height="10.69" viewBox="0 0 10.688 10.69">
  <metadata><?xpacket begin="﻿" id="W5M0MpCehiHzreSzNTczkc9d"?>
<x:xmpmeta xmlns:x="adobe:ns:meta/" x:xmptk="Adobe XMP Core 5.6-c140 79.160451, 2017/05/06-01:08:21        ">
   <rdf:RDF xmlns:rdf="http://www.w3.org/1999/02/22-rdf-syntax-ns#">
      <rdf:Description rdf:about=""/>
   </rdf:RDF>
</x:xmpmeta>
                                                                                                    
                                                                                                    
                                                                                                    
                                                                                                    
                                                                                                    
                                                                                                    
                                                                                                    
                                                                                                    
                                                                                                    
                                                                                                    
                                                                                                    
                                                                                                    
                                                                                                    
                                                                                                    
                                                                                                    
                                                                                                    
                                                                                                    
                                                                                                    
                                                                                                    
                                                                                                    
                           
<?xpacket end="w"?></metadata>
<defs>
    <style>
      .cls-1 {
        fill: #ffb74d;
        fill-rule: evenodd;
      }
    </style>
  </defs>
  <path id="_1" data-name="1" class="cls-1" d="M651.4,4308.98h-2.836a0.77,0.77,0,0,1-.713-0.52c-0.008-.02-0.016-0.05-0.022-0.07l-0.832-2.67-0.02-.07a0.5,0.5,0,0,0-.957.04h0l-0.842,2.69h0c-0.008.03-.016,0.06-0.026,0.09a0.777,0.777,0,0,1-.711.51H641.6a0.53,0.53,0,0,0-.436.53,0.541,0.541,0,0,0,.2.42c0.007,0.01.015,0.01,0.023,0.02l2.2,1.68h0a0.793,0.793,0,0,1,.336.66,0.849,0.849,0,0,1-.02.18,0.583,0.583,0,0,1-.042.13l-0.835,2.69s0,0.01,0,.01l-0.006.02a0.6,0.6,0,0,0-.021.15,0.521,0.521,0,0,0,.508.53,0.446,0.446,0,0,0,.253-0.07l0.087-.06s0,0,0-.01l2.187-1.66,0.049-.03a0.693,0.693,0,0,1,.42-0.14,0.722,0.722,0,0,1,.407.13c0.027,0.02.053,0.04,0.077,0.06h0l2.174,1.65,0.062,0.05h0a0.482,0.482,0,0,0,.263.08,0.521,0.521,0,0,0,.508-0.53,0.538,0.538,0,0,0-.023-0.16c0-.01,0-0.02-0.008-0.03l-0.839-2.69a0.766,0.766,0,0,1-.033-0.11,0.823,0.823,0,0,1-.023-0.19,0.833,0.833,0,0,1,.287-0.63c0.018-.01.038-0.03,0.058-0.04l2.179-1.66h0l0.066-.05a0.538,0.538,0,0,0,.178-0.4A0.525,0.525,0,0,0,651.4,4308.98Z" transform="translate(-641.156 -4305.31)"/>
</svg>
