<svg xmlns="http://www.w3.org/2000/svg" width="14" height="11" viewBox="0 0 14 11">
  <metadata><?xpacket begin="﻿" id="W5M0MpCehiHzreSzNTczkc9d"?>
<x:xmpmeta xmlns:x="adobe:ns:meta/" x:xmptk="Adobe XMP Core 5.6-c140 79.160451, 2017/05/06-01:08:21        ">
   <rdf:RDF xmlns:rdf="http://www.w3.org/1999/02/22-rdf-syntax-ns#">
      <rdf:Description rdf:about=""/>
   </rdf:RDF>
</x:xmpmeta>
                                                                                                    
                                                                                                    
                                                                                                    
                                                                                                    
                                                                                                    
                                                                                                    
                                                                                                    
                                                                                                    
                                                                                                    
                                                                                                    
                                                                                                    
                                                                                                    
                                                                                                    
                                                                                                    
                                                                                                    
                                                                                                    
                                                                                                    
                                                                                                    
                                                                                                    
                                                                                                    
                           
<?xpacket end="w"?></metadata>
<defs>
    <style>
      .cls-1 {
        fill: #647b9c;
        fill-rule: evenodd;
      }
    </style>
  </defs>
  <path id="tt" class="cls-1" d="M949,1711.3a5.677,5.677,0,0,1-1.649.43,2.776,2.776,0,0,0,1.263-1.53,5.714,5.714,0,0,1-1.824.67,2.918,2.918,0,0,0-2.1-.88,2.831,2.831,0,0,0-2.872,2.78,2.639,2.639,0,0,0,.074.63,8.228,8.228,0,0,1-5.92-2.9,2.707,2.707,0,0,0-.389,1.4,2.757,2.757,0,0,0,1.278,2.31,2.854,2.854,0,0,1-1.3-.35v0.04a2.8,2.8,0,0,0,2.3,2.72,2.707,2.707,0,0,1-.757.1,3.189,3.189,0,0,1-.54-0.05,2.866,2.866,0,0,0,2.683,1.93,5.921,5.921,0,0,1-3.567,1.19,5.165,5.165,0,0,1-.685-0.04,8.314,8.314,0,0,0,4.4,1.25,7.976,7.976,0,0,0,8.171-7.91c0-.12,0-0.24-0.008-0.36A5.761,5.761,0,0,0,949,1711.3Z" transform="translate(-935 -1710)"/>
</svg>
