<svg xmlns="http://www.w3.org/2000/svg" width="25" height="20" viewBox="0 0 25 20">
  <metadata><?xpacket begin="﻿" id="W5M0MpCehiHzreSzNTczkc9d"?>
<x:xmpmeta xmlns:x="adobe:ns:meta/" x:xmptk="Adobe XMP Core 5.6-c140 79.160451, 2017/05/06-01:08:21        ">
   <rdf:RDF xmlns:rdf="http://www.w3.org/1999/02/22-rdf-syntax-ns#">
      <rdf:Description rdf:about=""/>
   </rdf:RDF>
</x:xmpmeta>
                                                                                                    
                                                                                                    
                                                                                                    
                                                                                                    
                                                                                                    
                                                                                                    
                                                                                                    
                                                                                                    
                                                                                                    
                                                                                                    
                                                                                                    
                                                                                                    
                                                                                                    
                                                                                                    
                                                                                                    
                                                                                                    
                                                                                                    
                                                                                                    
                                                                                                    
                                                                                                    
                           
<?xpacket end="w"?></metadata>
<defs>
    <style>
      .cls-1 {
        fill: #fff;
        fill-rule: evenodd;
      }
    </style>
  </defs>
  <path id="twitter" class="cls-1" d="M1205,6695.99a5.291,5.291,0,0,1,4.06,1.59,8.579,8.579,0,0,0,2.63-.88c0.21-.11.42-0.23,0.63-0.34a4.991,4.991,0,0,1-1.66,2.37,2.442,2.442,0,0,1-.56.39v0.02a9.634,9.634,0,0,0,2.9-.78v0.01a8.21,8.21,0,0,1-1.74,1.97c-0.27.21-.53,0.42-0.8,0.63a14.615,14.615,0,0,1-.24,3.25c-1.28,5.67-4.67,9.52-10.05,11.17a15.455,15.455,0,0,1-7.25.3,19.1,19.1,0,0,1-3.02-.97,11.611,11.611,0,0,1-1.45-.74l-0.45-.27a8.8,8.8,0,0,0,1.64.06c0.5-.08,1-0.06,1.46-0.16a10.663,10.663,0,0,0,3.08-1.09,5.829,5.829,0,0,0,1.39-.9,4.4,4.4,0,0,1-1.53-.27,5.115,5.115,0,0,1-3.25-3.24,5.113,5.113,0,0,0,2.29-.09,3.887,3.887,0,0,1-1.68-.67,4.845,4.845,0,0,1-2.41-4.33c0.17,0.09.35,0.17,0.52,0.25a5.68,5.68,0,0,0,1.08.29,1.5,1.5,0,0,0,.7.07h-0.02c-0.26-.3-0.68-0.5-0.94-0.82a5.085,5.085,0,0,1-1.15-4.58,5.391,5.391,0,0,1,.55-1.32c0,0.01.01,0.01,0.02,0.01a2.92,2.92,0,0,0,.46.53,9.071,9.071,0,0,0,1.53,1.44,15.139,15.139,0,0,0,6.27,2.99,9.71,9.71,0,0,0,2.3.29,4.642,4.642,0,0,1,.03-2.37,4.989,4.989,0,0,1,2.9-3.39,6.333,6.333,0,0,1,1.14-.35C1204.59,6696.04,1204.8,6696.01,1205,6695.99Z" transform="translate(-1188 -6696)"/>
</svg>
