<svg width="0" height="0" class="hidden">
  <symbol xmlns="http://www.w3.org/2000/svg" viewBox="0 0 16 16" id="Iocn Suche">
    <path d="M11.31 6.45c0 2.25-1.83 4.08-4.09 4.08-2.25 0-4.08-1.83-4.08-4.08 0-2.26 1.83-4.09 4.08-4.09 2.26 0 4.09 1.83 4.09 4.09zm4.67 7.58c0-.31-.13-.61-.34-.82l-3.13-3.12a6.417 6.417 0 001.13-3.64c0-3.55-2.87-6.42-6.42-6.42A6.42 6.42 0 00.8 6.45c0 3.54 2.88 6.42 6.42 6.42 1.3 0 2.58-.4 3.64-1.13l3.13 3.11c.21.22.51.35.82.35.64 0 1.17-.53 1.17-1.17z" fill="#282828"></path>
  </symbol>
</svg>